<svg width="93" height="93" viewBox="0 0 93 93" fill="none" xmlns="http://www.w3.org/2000/svg">
<path d="M47.381 7.44716C33.5309 7.41083 21.3428 14.5766 14.3769 25.4023C14.0681 25.8837 14.4132 26.5194 14.9854 26.5194H21.37C21.806 26.5194 22.2147 26.3287 22.4871 25.9927C23.1229 25.2207 23.804 24.476 24.5215 23.7676C27.4822 20.8159 30.9243 18.4909 34.7569 16.8743C38.7167 15.2032 42.9308 14.3495 47.2811 14.3495C51.6314 14.3495 55.8454 15.1941 59.8052 16.8743C63.6378 18.4909 67.0799 20.8159 70.0406 23.7676C73.0014 26.7192 75.3173 30.1613 76.943 33.9849C78.6232 37.9446 79.4678 42.1496 79.4678 46.4999C79.4678 50.8502 78.6141 55.0552 76.943 59.0149C75.3264 62.8385 73.0014 66.2806 70.0406 69.2322C67.0799 72.1839 63.6378 74.5089 59.8052 76.1255C55.8423 77.7993 51.5829 78.658 47.2811 78.6503C42.9308 78.6503 38.7167 77.7966 34.7569 76.1255C30.9319 74.5105 27.456 72.1696 24.5215 69.2322C23.804 68.5147 23.1319 67.77 22.4871 67.0071C22.2147 66.6711 21.7969 66.4804 21.37 66.4804H14.9854C14.4132 66.4804 14.059 67.1161 14.3769 67.5975C21.3337 78.396 33.4673 85.5526 47.2811 85.5526C68.7328 85.5526 86.1522 68.2877 86.3701 46.8995C86.5881 25.1662 69.1415 7.50165 47.381 7.44716ZM35.8759 56.6718V49.7694H7.35828C6.95867 49.7694 6.63171 49.4425 6.63171 49.0429V43.9569C6.63171 43.5573 6.95867 43.2304 7.35828 43.2304H35.8759V36.328C35.8759 35.7195 36.5843 35.3744 37.0565 35.7559L49.9439 45.9277C50.0308 45.9957 50.101 46.0825 50.1493 46.1817C50.1976 46.2808 50.2227 46.3896 50.2227 46.4999C50.2227 46.6102 50.1976 46.719 50.1493 46.8181C50.101 46.9173 50.0308 47.0041 49.9439 47.0721L37.0565 57.2439C36.5843 57.6163 35.8759 57.2803 35.8759 56.6718Z" fill="black"/>
</svg>
