<svg width="116" height="93" viewBox="0 0 116 93" fill="none" xmlns="http://www.w3.org/2000/svg">
<path d="M110.2 58.125H98.6V69.75H102.66C103.621 69.75 104.4 70.4039 104.4 71.2031V74.1094C104.4 74.9086 103.621 75.5625 102.66 75.5625H13.34C12.3794 75.5625 11.6 74.9086 11.6 74.1094V71.2031C11.6 70.4039 12.3794 69.75 13.34 69.75H17.4V58.125H5.8C2.59187 58.125 0 60.7225 0 63.9375V81.375C0 84.59 2.59187 87.1875 5.8 87.1875H110.2C113.408 87.1875 116 84.59 116 81.375V63.9375C116 60.7225 113.408 58.125 110.2 58.125ZM92.8 69.75V11.6795C92.8 8.42813 90.1719 5.8125 86.9456 5.8125H29.0725C25.8281 5.8125 23.2 8.44629 23.2 11.6795V69.75H92.8ZM38.28 36.6914L42.9019 32.0959C43.6631 31.333 44.8956 31.333 45.6569 32.1141L53.1425 39.6703L70.3975 22.5234C71.1588 21.7605 72.3913 21.7605 73.1525 22.5416L77.7381 27.1734C78.4994 27.9363 78.4994 29.1715 77.72 29.9344L54.4656 53.0391C53.7044 53.802 52.4719 53.802 51.7106 53.0209L38.28 39.4523C37.5006 38.6895 37.5187 37.4543 38.28 36.6914Z" fill="black"/>
</svg>
